 <svg version="1.0" xmlns="http://www.w3.org/2000/svg" width="700.000000pt" height="367.000000pt" viewBox="0 0 700.000000 367.000000" preserveAspectRatio="xMidYMid meet">
<metadata>
Created by potrace 1.12, written by Peter Selinger 2001-2015
</metadata>
<g transform="translate(0.000000,367.000000) scale(0.100000,-0.100000)" fill="#000000" stroke="none">
<path d="M5947 3616 c-11 -17 -15 -39 -12 -73 2 -26 9 -118 15 -203 6 -85 18
-220 25 -300 24 -244 28 -396 16 -606 -6 -111 -14 -209 -17 -218 -3 -9 -2 -16
4 -16 17 0 22 40 33 275 10 198 9 258 -5 435 -43 511 -55 693 -45 704 4 5 14
6 22 3 15 -5 17 -26 37 -327 5 -80 15 -188 22 -240 8 -60 13 -223 13 -448 0
-193 3 -352 6 -352 10 0 19 199 18 389 0 170 -5 268 -28 531 -6 69 -15 194
-21 279 -8 119 -14 159 -27 173 -22 24 -38 23 -56 -6z"></path>
<path d="M1250 3070 c0 -87 4 -140 10 -140 6 0 10 53 10 140 0 87 -4 140 -10
140 -6 0 -10 -53 -10 -140z"></path>
<path d="M1200 2880 c0 -11 5 -20 10 -20 6 0 10 9 10 20 0 11 -4 20 -10 20 -5
0 -10 -9 -10 -20z"></path>
<path d="M1200 2645 c0 -8 5 -15 10 -15 6 0 10 7 10 15 0 8 -4 15 -10 15 -5 0
-10 -7 -10 -15z"></path>
<path d="M1925 2571 c-151 -6 -160 -7 -160 -26 0 -22 20 -23 375 -14 123 3
171 1 188 -9 22 -13 22 -15 20 -190 l-3 -177 -55 3 c-30 2 -71 8 -90 14 -19 6
-125 13 -235 17 l-200 6 -7 75 c-5 41 -11 122 -15 180 -6 83 -11 105 -23 105
-12 0 -15 -17 -14 -95 0 -52 5 -142 10 -200 l9 -105 200 -6 c110 -4 220 -11
245 -17 25 -6 82 -13 127 -17 66 -6 82 -10 86 -25 6 -25 109 -34 321 -29 126
3 160 1 158 -9 -1 -7 -6 -42 -12 -79 -5 -36 -14 -71 -20 -77 -7 -7 -76 -11
-198 -12 -103 -1 -209 -6 -235 -11 -62 -13 -64 -8 -47 103 10 65 11 87 2 96
-9 9 -16 9 -27 -3 -12 -11 -16 -43 -18 -130 l-2 -114 40 3 c22 1 145 5 274 8
l233 6 26 57 c14 31 25 65 24 76 -1 11 4 22 10 26 7 5 8 22 2 55 l-9 49 -255
5 -255 5 -5 215 -5 215 -30 15 c-34 17 -174 20 -430 11z"></path>
<path d="M4824 2559 c-12 -20 11 -27 106 -32 118 -7 299 -25 347 -35 36 -7 37
-10 51 -72 12 -53 13 -84 4 -164 -6 -54 -14 -102 -19 -106 -4 -4 -122 -10
-261 -13 -220 -4 -254 -3 -259 10 -3 9 0 63 7 122 21 177 23 232 11 244 -22
22 -33 -12 -47 -150 -17 -179 -18 -262 -1 -268 6 -2 143 -1 302 3 l290 7 12
80 c21 145 11 284 -24 327 -30 36 -499 78 -519 47z"></path>
<path d="M3585 2479 c-82 -11 -181 -22 -218 -25 -194 -14 -222 -19 -222 -34 0
-13 19 -15 120 -12 66 1 181 9 255 18 211 25 323 32 338 20 10 -7 12 -25 6
-70 -4 -34 -8 -78 -9 -99 -1 -21 -7 -43 -14 -50 -7 -7 -97 -14 -264 -20 -140
-5 -275 -14 -305 -21 -50 -12 -54 -12 -67 8 -8 11 -15 26 -15 33 0 27 -53 169
-70 187 -32 33 -57 -8 -26 -43 7 -9 26 -56 41 -106 15 -49 32 -95 39 -101 14
-15 691 7 707 23 17 17 35 281 20 296 -19 19 -153 18 -316 -4z"></path>
<path d="M4887 2375 c18 -25 33 -32 33 -17 0 10 -33 42 -44 42 -4 0 1 -11 11
-25z"></path>
<path d="M4360 2320 c0 -11 4 -20 9 -20 5 0 12 -13 16 -30 4 -16 13 -30 21
-30 19 0 18 12 -7 60 -23 43 -39 52 -39 20z"></path>
<path d="M4626 2324 c-4 -9 -4 -19 -2 -21 8 -8 26 8 26 23 0 19 -16 18 -24 -2z"></path>
<path d="M4560 2286 c0 -48 18 -72 27 -37 3 11 9 19 13 16 5 -3 11 -1 15 5 3
5 -3 10 -14 10 -16 0 -21 6 -21 25 0 14 -4 25 -10 25 -5 0 -10 -20 -10 -44z"></path>
<path d="M4310 2310 c0 -5 5 -10 10 -10 6 0 10 5 10 10 0 6 -4 10 -10 10 -5 0
-10 -4 -10 -10z"></path>
<path d="M4481 2303 c3 -19 -3 -57 -8 -45 -5 14 -33 17 -33 3 0 -17 26 -30 49
-24 18 4 21 12 19 36 -2 17 -9 32 -16 35 -7 2 -12 0 -11 -5z"></path>
<path d="M4950 2286 c0 -7 6 -19 14 -25 11 -9 12 -6 8 14 -5 26 -22 35 -22 11z"></path>
<path d="M4326 2281 c-7 -11 3 -41 14 -41 11 0 21 30 14 41 -3 5 -9 9 -14 9
-5 0 -11 -4 -14 -9z"></path>
<path d="M4630 2265 c0 -8 7 -15 15 -15 8 0 15 7 15 15 0 8 -7 15 -15 15 -8 0
-15 -7 -15 -15z"></path>
<path d="M3152 2142 c-12 -2 -29 -16 -37 -33 -14 -25 -14 -33 -1 -63 l15 -35
208 0 c114 -1 285 -4 379 -7 94 -4 183 -4 196 -1 34 9 46 63 23 107 l-16 30
-297 1 c-163 0 -305 2 -315 4 -10 2 -37 -3 -59 -11 -49 -17 -44 -17 -60 -1 -7
6 -23 11 -36 9z m181 -49 c-29 -2 -78 -2 -110 0 -32 2 -8 3 52 3 61 0 87 -1
58 -3z m301 -42 c11 -4 15 -10 10 -13 -5 -4 -18 0 -29 8 -20 15 -12 17 19 5z
m-437 -7 c-3 -3 -12 -4 -19 -1 -8 3 -5 6 6 6 11 1 17 -2 13 -5z m80 0 c-3 -3
-12 -4 -19 -1 -8 3 -5 6 6 6 11 1 17 -2 13 -5z m80 0 c-3 -3 -12 -4 -19 -1 -8
3 -5 6 6 6 11 1 17 -2 13 -5z m99 -1 c-11 -11 -35 -12 -42 -2 -3 5 7 9 22 9
15 0 24 -3 20 -7z m127 0 c-7 -2 -21 -2 -30 0 -10 3 -4 5 12 5 17 0 24 -2 18
-5z"></path>
<path d="M1250 2136 c0 -2 -3 -80 -7 -173 -3 -92 -7 -204 -7 -248 l-1 -80 100
-3 c72 -2 114 2 149 13 38 13 68 15 128 10 96 -9 99 -4 63 100 -34 100 -44
225 -21 279 35 83 19 94 -149 103 -88 5 -122 2 -158 -10 -40 -13 -48 -13 -58
-1 -10 13 -39 20 -39 10z m363 -55 c4 -4 3 -20 -3 -35 -17 -47 -12 -197 10
-267 10 -35 19 -68 20 -73 0 -5 -27 -8 -60 -7 -33 1 -93 -5 -133 -14 -41 -9
-96 -15 -123 -13 l-49 3 2 35 c1 19 8 107 14 196 l13 160 50 17 c39 12 75 15
151 11 55 -3 104 -9 108 -13z"></path>
<path d="M5790 2130 c-47 -5 -132 -20 -189 -35 -98 -26 -103 -26 -122 -9 -28
25 -46 6 -31 -33 21 -55 32 -136 32 -238 0 -57 3 -106 8 -108 4 -2 94 1 200 6
168 9 199 9 242 -5 l50 -16 0 23 c0 13 -6 27 -12 32 -7 4 -110 8 -228 8 l-214
0 -1 70 c-1 39 -5 100 -9 136 l-9 67 109 25 c103 24 314 52 344 45 9 -2 16 6
18 20 3 21 0 22 -50 21 -29 -1 -91 -5 -138 -9z"></path>
<path d="M4207 2113 c-3 -5 -9 -58 -13 -118 -9 -150 -6 -154 136 -165 58 -5
111 -9 118 -10 18 0 15 -24 -6 -44 -15 -13 -42 -16 -140 -17 l-122 -1 0 -35 0
-35 40 32 c29 23 40 27 40 16 0 -11 13 -16 48 -19 37 -3 32 -4 -24 -5 -79 -2
-104 -18 -104 -65 l0 -27 318 0 c234 0 321 3 330 12 21 21 14 73 -13 102 -23
25 -28 26 -138 26 -116 0 -137 6 -137 42 0 15 12 18 83 20 l82 3 16 50 c9 28
19 87 23 132 6 78 5 83 -16 94 -15 8 -81 10 -230 7 -177 -4 -211 -7 -226 -21
-30 -30 -3 -36 123 -26 66 5 162 8 214 6 l93 -2 -5 -76 c-3 -41 -11 -88 -16
-103 -11 -26 -12 -27 -88 -24 -70 3 -78 5 -78 23 0 17 6 20 43 17 32 -3 42 0
42 12 0 11 -10 14 -41 13 -54 -3 -60 15 -14 41 25 16 35 28 35 47 0 14 -4 25
-10 25 -5 0 -10 -6 -10 -13 0 -36 -78 -74 -95 -47 -3 6 -15 10 -26 10 -31 0
-17 -23 19 -34 44 -12 40 -26 -8 -26 -66 0 -50 -21 25 -32 11 -2 20 -10 20
-18 0 -13 -18 -14 -110 -12 -117 4 -160 18 -151 50 3 9 6 57 8 107 3 77 1 90
-14 93 -9 2 -19 -1 -21 -5z m316 -317 c19 -29 14 -36 -30 -36 -38 0 -39 2 -17
35 20 31 28 31 47 1z m85 -133 c-21 -2 -55 -2 -75 0 -21 2 -4 4 37 4 41 0 58
-2 38 -4z m120 0 c-10 -2 -28 -2 -40 0 -13 2 -5 4 17 4 22 1 32 -1 23 -4z"></path>
<path d="M6015 2028 c-6 -82 7 -314 19 -326 17 -16 21 29 16 207 -3 134 -9
196 -17 198 -7 3 -13 -23 -18 -79z"></path>
<path d="M4477 2033 c-14 -13 -7 -33 11 -33 26 0 34 11 21 27 -13 14 -22 16
-32 6z"></path>
<path d="M2992 1991 c1 -32 5 -41 15 -36 8 3 21 5 29 5 8 0 14 10 14 26 0 21
4 25 20 21 13 -3 20 0 20 10 0 10 -9 13 -27 11 -22 -2 -29 -9 -31 -31 -4 -32
-27 -32 -27 0 0 12 -3 25 -7 29 -5 4 -7 -12 -6 -35z"></path>
<path d="M5267 1999 c-17 -10 -23 -40 -10 -52 3 -4 15 0 25 10 31 28 20 61
-15 42z"></path>
<path d="M3291 1979 c-14 -5 -31 -7 -38 -5 -17 7 -17 -10 0 -18 10 -5 10 -7 0
-12 -22 -10 -14 -26 10 -22 12 2 26 13 32 25 7 16 15 21 27 17 13 -4 16 -1 12
10 -7 18 -10 18 -43 5z"></path>
<path d="M3400 1975 c-8 -9 -8 -15 -2 -15 12 0 26 19 19 26 -2 2 -10 -2 -17
-11z"></path>
<path d="M3950 1980 c0 -5 18 -10 40 -10 22 0 40 5 40 10 0 6 -18 10 -40 10
-22 0 -40 -4 -40 -10z"></path>
<path d="M4132 1979 c2 -7 10 -15 17 -17 8 -3 12 1 9 9 -2 7 -10 15 -17 17 -8
3 -12 -1 -9 -9z"></path>
<path d="M2950 1971 c0 -6 5 -13 10 -16 6 -3 10 1 10 9 0 9 -4 16 -10 16 -5 0
-10 -4 -10 -9z"></path>
<path d="M3120 1970 c0 -5 14 -10 31 -10 17 0 28 4 24 10 -3 6 -17 10 -31 10
-13 0 -24 -4 -24 -10z"></path>
<path d="M3195 1969 c-4 -6 -5 -13 -2 -16 7 -7 27 6 27 18 0 12 -17 12 -25 -2z"></path>
<path d="M3465 1964 c20 -15 37 -14 42 3 2 5 -11 10 -29 11 -31 1 -32 0 -13
-14z"></path>
<path d="M3585 1969 c-10 -15 3 -25 16 -12 7 7 7 13 1 17 -6 3 -14 1 -17 -5z"></path>
<path d="M5265 1900 c3 -5 8 -10 11 -10 2 0 4 5 4 10 0 6 -5 10 -11 10 -5 0
-7 -4 -4 -10z"></path>
<path d="M3586 1875 c-15 -12 -17 -17 -7 -29 8 -10 12 -37 9 -71 l-3 -56 120
3 c132 3 131 3 149 81 6 24 4 28 -11 25 -12 -2 -20 -15 -23 -41 -7 -56 -24
-45 -24 16 0 49 1 52 27 55 15 2 27 7 27 11 0 5 -40 7 -89 5 -53 -2 -93 0 -96
6 -9 15 -57 12 -79 -5z m59 -68 c0 -80 -17 -85 -27 -7 -7 58 -2 83 16 77 7 -2
11 -30 11 -70z m110 39 c18 -13 24 -73 10 -96 -9 -14 -69 -12 -83 2 -17 17
-15 68 5 90 19 21 42 23 68 4z"></path>
<path d="M3707 1834 c-13 -13 -7 -24 14 -24 11 0 19 5 17 12 -5 14 -22 21 -31
12z"></path>
<path d="M3695 1780 c-8 -13 20 -24 40 -16 8 3 15 10 15 16 0 13 -47 13 -55 0z"></path>
<path d="M3510 1860 c0 -5 5 -10 10 -10 6 0 10 5 10 10 0 6 -4 10 -10 10 -5 0
-10 -4 -10 -10z"></path>
<path d="M4140 1825 c0 -8 5 -15 10 -15 6 0 10 7 10 15 0 8 -4 15 -10 15 -5 0
-10 -7 -10 -15z"></path>
<path d="M3524 1815 c-6 -16 12 -45 27 -45 5 0 9 14 9 30 0 32 -26 43 -36 15z"></path>
<path d="M3204 1788 c-4 -6 -7 -33 -6 -60 1 -40 -6 -59 -32 -101 -36 -55 -36
-55 7 -119 15 -23 16 -28 2 -41 -10 -10 -13 -25 -9 -46 l6 -30 304 -1 c296 0
344 5 344 32 0 4 -140 7 -311 8 -171 0 -315 3 -321 6 -5 4 4 19 21 35 17 15
31 35 31 43 0 24 20 29 40 11 14 -12 17 -25 13 -46 -8 -41 12 -37 33 7 l17 35
-34 35 c-28 29 -30 34 -13 33 10 0 28 -4 38 -8 23 -9 79 16 73 32 -2 6 -25 13
-52 14 -67 5 -78 18 -40 49 l30 24 -39 0 c-37 0 -38 1 -23 18 10 10 17 23 17
29 0 28 -82 64 -96 41z"></path>
<path d="M2271 1733 c-16 -20 -21 -38 -19 -67 l3 -41 298 -8 c351 -10 347 -11
366 70 6 29 10 57 6 62 -3 5 -142 10 -319 11 l-314 1 -21 -28z m287 -20 c-26
-2 -71 -2 -100 0 -29 2 -8 3 47 3 55 0 79 -1 53 -3z m260 0 c-21 -2 -55 -2
-75 0 -21 2 -4 4 37 4 41 0 58 -2 38 -4z m69 -40 c-3 -10 -5 -2 -5 17 0 19 2
27 5 18 2 -10 2 -26 0 -35z m-489 -10 c-15 -2 -42 -2 -60 0 -18 2 -6 4 27 4
33 0 48 -2 33 -4z m245 0 c-7 -2 -19 -2 -25 0 -7 3 -2 5 12 5 14 0 19 -2 13
-5z"></path>
<path d="M4137 1754 c-8 -8 4 -107 14 -118 5 -6 9 18 9 57 0 61 -6 78 -23 61z"></path>
<path d="M5970 1658 c0 -13 4 -39 10 -58 24 -88 73 -417 65 -437 -4 -13 -39
-14 -260 -8 -162 5 -255 4 -255 -2 0 -6 75 -13 178 -16 97 -4 221 -10 275 -14
l98 -6 -7 54 c-3 30 -13 90 -21 134 -7 44 -16 98 -19 120 -11 86 -48 255 -56
255 -4 0 -8 -10 -8 -22z"></path>
<path d="M6040 1661 c0 -11 6 -50 14 -88 19 -94 54 -305 63 -383 8 -63 9 -64
43 -72 19 -4 199 -7 400 -7 232 1 365 -2 367 -8 2 -6 -4 -16 -13 -24 -22 -18
-515 -26 -689 -10 -192 17 -795 35 -805 25 -16 -16 -24 -157 -11 -182 7 -13
16 -20 22 -16 5 3 16 0 24 -6 17 -14 50 -5 40 10 -3 5 -16 10 -29 10 -31 0
-46 18 -46 57 0 23 7 37 23 47 27 17 87 10 87 -10 0 -19 6 -18 30 6 11 11 30
20 42 20 12 0 18 3 15 7 -4 3 -46 7 -94 7 -70 1 -88 4 -88 16 0 19 103 19 435
1 129 -8 416 -14 637 -15 402 -1 402 -1 424 21 18 18 21 26 12 45 l-10 23
-381 0 c-326 0 -383 2 -395 15 -8 8 -19 51 -26 95 -32 228 -69 423 -83 431 -4
3 -8 -4 -8 -15z"></path>
<path d="M4140 1530 c0 -40 4 -70 10 -70 6 0 10 30 10 70 0 40 -4 70 -10 70
-6 0 -10 -30 -10 -70z"></path>
<path d="M4480 1515 c0 -69 10 -95 23 -61 8 20 -4 136 -14 136 -5 0 -9 -34 -9
-75z"></path>
<path d="M4180 1520 c0 -62 14 -81 23 -33 6 34 -3 93 -14 93 -5 0 -9 -27 -9
-60z"></path>
<path d="M570 1554 c0 -8 5 -12 10 -9 6 3 10 10 10 16 0 5 -4 9 -10 9 -5 0
-10 -7 -10 -16z"></path>
<path d="M1215 1438 c5 -73 9 -160 11 -193 l2 -60 71 -3 c44 -2 71 1 71 8 0 5
-22 10 -49 10 -27 0 -53 6 -59 13 -11 14 -19 84 -28 245 -4 65 -11 112 -17
112 -7 0 -7 -44 -2 -132z"></path>
<path d="M4430 1555 c-7 -8 -27 -15 -44 -15 -39 0 -56 -15 -56 -52 0 -36 18
-37 22 0 3 25 7 27 56 30 48 3 52 5 52 28 0 27 -12 31 -30 9z"></path>
<path d="M1145 1453 c4 -60 11 -135 16 -168 8 -54 7 -62 -11 -77 -28 -23 -25
-28 16 -28 27 0 35 4 31 14 -9 23 -26 163 -33 269 -3 53 -10 97 -16 97 -6 0
-7 -40 -3 -107z"></path>
<path d="M2095 1530 c-4 -6 5 -10 19 -10 14 0 26 5 26 10 0 6 -9 10 -19 10
-11 0 -23 -4 -26 -10z"></path>
<path d="M4610 1533 c-29 -11 -60 -47 -60 -70 0 -14 4 -21 10 -18 6 3 10 15
10 25 0 23 36 50 67 50 13 0 23 5 23 10 0 11 -25 12 -50 3z"></path>
<path d="M5325 1519 c-4 -6 -5 -13 -2 -16 8 -7 47 7 47 18 0 13 -37 11 -45 -2z"></path>
<path d="M2050 1500 c-20 -20 -27 -50 -12 -50 7 1 43 70 36 70 -2 0 -13 -9
-24 -20z"></path>
<path d="M2165 1510 c3 -5 8 -10 11 -10 2 0 4 5 4 10 0 6 -5 10 -11 10 -5 0
-7 -4 -4 -10z"></path>
<path d="M5390 1510 c0 -5 8 -10 19 -10 10 0 24 -7 31 -15 7 -8 21 -15 32 -15
10 0 32 -7 48 -15 24 -13 29 -13 34 0 7 18 2 21 -58 30 -27 3 -55 13 -63 21
-17 16 -43 19 -43 4z"></path>
<path d="M541 1496 c-7 -8 -8 -17 -3 -20 6 -3 15 1 21 8 7 8 8 17 3 20 -6 3
-15 -1 -21 -8z"></path>
<path d="M2092 1488 c-17 -17 -15 -83 3 -98 17 -14 47 -10 53 8 2 8 -5 11 -20
10 -20 -3 -23 1 -23 32 0 32 2 35 28 33 24 -2 27 0 17 13 -15 17 -42 18 -58 2z"></path>
<path d="M2570 1489 c0 -5 5 -7 10 -4 6 3 10 8 10 11 0 2 -4 4 -10 4 -5 0 -10
-5 -10 -11z"></path>
<path d="M4384 1485 c-8 -21 4 -35 30 -35 27 0 51 24 41 40 -9 15 -65 12 -71
-5z"></path>
<path d="M4610 1485 c-17 -20 -17 -69 0 -89 17 -22 43 -20 65 4 10 11 21 17
26 15 6 -4 39 48 39 62 0 15 -31 -4 -56 -34 -22 -26 -36 -35 -48 -30 -26 10
-17 51 12 55 13 2 21 9 19 15 -6 19 -42 20 -57 2z"></path>
<path d="M5060 1490 c0 -5 5 -10 10 -10 6 0 10 5 10 10 0 6 -4 10 -10 10 -5 0
-10 -4 -10 -10z"></path>
<path d="M5100 1494 c0 -4 11 -17 25 -30 20 -19 24 -29 19 -51 -7 -25 -6 -27
9 -14 24 20 21 48 -9 76 -26 24 -44 32 -44 19z"></path>
<path d="M2420 1480 c0 -5 5 -10 10 -10 6 0 10 5 10 10 0 6 -4 10 -10 10 -5 0
-10 -4 -10 -10z"></path>
<path d="M5255 1479 c-4 -6 -5 -13 -2 -16 7 -7 27 6 27 18 0 12 -17 12 -25 -2z"></path>
<path d="M2179 1453 c-6 -17 -6 -30 0 -36 7 -7 13 -4 17 9 4 10 14 27 22 37
14 15 13 17 -7 17 -14 0 -25 -9 -32 -27z"></path>
<path d="M2290 1471 c0 -6 5 -13 11 -17 7 -4 9 -24 6 -51 -3 -30 -1 -43 7 -40
6 2 12 29 14 60 3 52 1 57 -18 57 -11 0 -20 -4 -20 -9z"></path>
<path d="M2388 1473 c7 -3 16 -2 19 1 4 3 -2 6 -13 5 -11 0 -14 -3 -6 -6z"></path>
<path d="M2498 1440 c4 -30 22 -43 22 -16 0 8 3 21 6 30 4 11 0 16 -13 16 -16
0 -19 -5 -15 -30z"></path>
<path d="M4830 1428 c0 -26 -4 -50 -10 -53 -18 -11 -10 -26 12 -23 20 3 22 8
19 53 -3 66 -21 84 -21 23z"></path>
<path d="M5020 1422 c0 -36 5 -54 20 -67 12 -11 20 -31 20 -52 0 -18 5 -33 10
-33 20 0 11 76 -11 96 -17 15 -20 27 -16 61 3 32 1 43 -9 43 -10 0 -14 -14
-14 -48z"></path>
<path d="M1970 1445 c0 -8 5 -15 10 -15 6 0 10 7 10 15 0 8 -4 15 -10 15 -5 0
-10 -7 -10 -15z"></path>
<path d="M2241 1446 c-18 -22 -10 -61 13 -61 26 0 44 30 30 52 -15 23 -29 26
-43 9z"></path>
<path d="M2373 1452 c-6 -4 -15 -20 -18 -35 -6 -24 -5 -27 19 -27 22 0 26 4
26 29 0 32 -10 44 -27 33z"></path>
<path d="M2437 1454 c-4 -4 -7 -18 -7 -31 0 -18 5 -24 18 -21 10 2 17 12 17
27 0 24 -15 37 -28 25z"></path>
<path d="M2555 1451 c-7 -12 12 -24 25 -16 11 7 4 25 -10 25 -5 0 -11 -4 -15
-9z"></path>
<path d="M4891 1451 c-19 -12 -10 -85 12 -89 14 -3 17 4 17 42 0 47 -8 60 -29
47z"></path>
<path d="M4754 1436 c-10 -26 0 -51 21 -51 16 0 20 7 20 30 0 33 -30 49 -41
21z"></path>
<path d="M4957 1443 c-4 -3 -7 -21 -7 -40 0 -26 4 -33 20 -33 17 0 20 7 20 40
0 38 -14 52 -33 33z"></path>
<path d="M5190 1410 c0 -22 5 -40 10 -40 6 0 10 8 10 18 0 9 3 27 6 40 5 16 2
22 -10 22 -12 0 -16 -10 -16 -40z"></path>
<path d="M5330 1430 c0 -5 5 -10 10 -10 6 0 10 5 10 10 0 6 -4 10 -10 10 -5 0
-10 -4 -10 -10z"></path>
<path d="M2030 1419 c0 -16 20 -49 29 -49 5 0 4 14 -2 30 -11 29 -27 41 -27
19z"></path>
<path d="M2668 1397 c-2 -18 -7 -30 -13 -27 -5 3 -8 16 -6 28 2 18 -1 23 -16
20 -16 -3 -18 -15 -18 -113 l0 -110 443 -3 c316 -2 443 1 440 9 -2 7 -93 11
-288 12 l-284 2 -1 90 -2 90 102 -3 c97 -4 102 -3 108 17 5 20 3 20 -228 20
l-234 0 -3 -32z m230 -90 c-4 -110 -22 -119 -26 -14 -2 56 -6 77 -15 74 -8 -2
-12 -28 -12 -73 l-1 -69 -104 0 -105 0 4 45 c2 32 9 51 26 65 12 11 25 28 29
38 5 16 16 18 86 16 51 -1 85 2 93 10 21 21 28 -5 25 -92z"></path>
<path d="M3888 1423 c-20 -2 -42 -11 -48 -19 -11 -12 9 -14 142 -14 l155 0 -4
-72 c-3 -40 -6 -79 -8 -85 -3 -10 -72 -13 -297 -13 -285 0 -344 -6 -308 -30
19 -12 27 -12 35 0 4 6 117 10 306 10 l300 0 -3 111 -3 111 -115 2 c-63 2
-132 1 -152 -1z"></path>
<path d="M4180 1405 c0 -25 1 -25 85 -25 84 0 85 0 85 25 0 25 -1 25 -85 25
-84 0 -85 0 -85 -25z"></path>
<path d="M4378 1398 c-2 -28 -7 -32 -25 -30 -26 4 -30 -10 -8 -28 19 -16 45
-6 52 20 3 11 12 20 19 20 10 0 14 -15 14 -59 0 -33 3 -66 6 -75 5 -14 -8 -16
-112 -16 l-119 0 0 67 c0 44 -4 68 -12 70 -10 4 -13 -17 -13 -81 l0 -85 427
-1 c362 0 429 -2 442 -15 13 -12 13 -15 0 -20 -8 -3 -138 -6 -289 -8 l-275 -2
298 -3 298 -2 -3 38 -3 37 -200 67 c-110 37 -214 67 -231 67 -17 1 -42 9 -55
20 -13 10 -35 20 -49 23 -14 3 -31 7 -39 9 -12 3 -15 -13 -15 -90 -1 -66 -5
-95 -13 -98 -10 -4 -13 14 -13 69 0 82 -24 138 -59 138 -15 0 -21 -8 -23 -32z
m351 -99 c102 -34 190 -65 196 -70 6 -6 -74 -8 -200 -7 l-210 3 -1 68 c-1 53
2 67 14 67 8 0 98 -28 201 -61z"></path>
<path d="M1903 1398 c2 -7 12 -13 22 -13 10 0 20 6 23 13 2 7 -6 12 -23 12
-17 0 -25 -5 -22 -12z"></path>
<path d="M1970 1390 c0 -11 5 -20 10 -20 6 0 10 9 10 20 0 11 -4 20 -10 20 -5
0 -10 -9 -10 -20z"></path>
<path d="M2566 1403 c-11 -11 -6 -23 9 -23 8 0 15 4 15 9 0 13 -16 22 -24 14z"></path>
<path d="M5105 1400 c-3 -5 -1 -10 4 -10 6 0 11 5 11 10 0 6 -2 10 -4 10 -3 0
-8 -4 -11 -10z"></path>
<path d="M2176 1381 c-11 -12 -27 -21 -38 -21 -10 0 -18 -4 -18 -10 0 -13 23
-13 36 -1 5 5 22 11 37 13 25 3 27 5 15 21 -13 18 -14 17 -32 -2z"></path>
<path d="M4706 1391 c-4 -5 -2 -12 3 -15 5 -4 12 -2 15 3 4 5 2 12 -3 15 -5 4
-12 2 -15 -3z"></path>
<path d="M2500 1375 c-6 -7 -18 -11 -28 -8 -9 2 -73 -14 -142 -37 -69 -22
-147 -47 -175 -55 -161 -47 -185 -60 -185 -102 0 -28 25 -31 40 -3 10 19 23
20 293 22 l282 3 3 76 3 77 -40 20 c-33 17 -41 19 -51 7z m49 -39 c7 -8 11
-37 9 -68 l-3 -53 -217 -2 c-120 -1 -218 1 -218 5 0 4 53 22 118 41 64 19 155
47 202 62 102 33 95 32 109 15z"></path>
<path d="M5123 1363 c-20 -13 -23 -24 -23 -84 0 -39 4 -69 10 -69 6 0 10 25
10 55 0 47 4 60 25 79 13 13 22 26 18 29 -9 10 -15 8 -40 -10z"></path>
<path d="M1922 1349 c2 -7 10 -15 17 -17 8 -3 12 1 9 9 -2 7 -10 15 -17 17 -8
3 -12 -1 -9 -9z"></path>
<path d="M5223 1186 c2 -6 44 -14 93 -18 49 -3 106 -10 127 -13 24 -5 37 -3
37 4 0 6 -9 11 -21 11 -11 0 -28 4 -37 9 -26 13 -203 19 -199 7z"></path>
<path d="M1390 1180 c0 -6 78 -10 215 -10 137 0 215 4 215 10 0 6 -78 10 -215
10 -137 0 -215 -4 -215 -10z"></path>
<path d="M1850 1180 c0 -5 7 -10 15 -10 8 0 15 5 15 10 0 6 -7 10 -15 10 -8 0
-15 -4 -15 -10z"></path>
<path d="M2608 1143 c-8 -10 -84 -13 -320 -13 -238 0 -310 -3 -313 -12 -2 -7
-5 -37 -8 -66 -4 -52 -4 -52 18 -38 15 10 32 12 51 7 28 -7 29 -10 32 -71 2
-35 -2 -68 -7 -73 -38 -38 30 -50 489 -92 170 -15 690 -40 835 -40 230 0 881
18 930 25 33 5 92 12 130 15 39 3 104 9 145 15 41 5 140 15 219 21 114 10 153
17 189 35 25 13 48 22 50 20 5 -6 -43 -114 -94 -211 -54 -101 -93 -155 -112
-155 -7 0 -42 -20 -76 -45 -71 -50 -81 -53 -95 -26 -6 10 -26 22 -45 25 -29 6
-44 0 -98 -34 l-63 -41 -21 26 c-26 33 -56 27 -136 -27 -31 -21 -63 -38 -71
-38 -7 0 -26 13 -41 29 -40 42 -91 40 -163 -5 l-55 -36 -39 26 c-54 36 -99 34
-179 -9 -35 -19 -69 -35 -75 -35 -6 0 -27 12 -48 26 -58 39 -105 39 -163 2
l-49 -31 -70 36 c-100 51 -120 52 -178 10 l-47 -35 -63 37 c-34 20 -78 39 -97
40 -30 3 -39 -1 -66 -33 l-32 -36 -57 38 c-31 20 -68 39 -80 40 -13 1 -31 8
-39 15 -13 11 -21 8 -51 -18 -20 -17 -41 -31 -47 -31 -6 0 -34 17 -62 38 -32
25 -67 41 -95 46 -40 6 -47 4 -66 -20 -19 -24 -24 -25 -46 -14 -13 7 -42 28
-65 47 -23 18 -46 33 -52 33 -18 0 -56 58 -133 208 -72 140 -109 188 -109 142
0 -59 218 -424 254 -425 6 0 36 -15 67 -33 31 -17 60 -32 65 -32 4 0 19 11 33
25 23 21 31 23 63 16 21 -5 59 -25 86 -45 58 -42 70 -44 107 -14 39 31 84 25
158 -22 57 -37 62 -38 88 -24 15 7 34 22 41 33 18 26 76 15 142 -27 28 -18 53
-32 57 -32 3 0 26 15 50 34 52 42 74 41 175 -11 l70 -37 47 32 c41 29 51 32
89 26 24 -4 61 -18 83 -32 l40 -25 60 33 c33 19 80 37 104 41 39 6 50 3 84
-22 l39 -28 47 25 c25 15 51 30 56 35 22 17 81 4 120 -28 21 -18 43 -29 49
-26 6 4 36 23 66 43 56 37 99 45 122 22 20 -20 46 -14 101 22 59 40 96 39 122
0 8 -13 20 -24 25 -24 5 0 35 18 66 40 39 27 61 37 68 30 5 -5 13 -10 17 -10
19 0 114 141 178 263 57 110 71 146 71 181 0 25 -4 48 -10 51 -14 8 -13 138 1
152 6 6 9 21 7 34 l-3 24 -300 3 c-225 1 -303 5 -310 15 -15 18 -1842 18
-1857 0z m1842 -23 c10 -18 23 -20 188 -22 l177 -3 3 -35 3 -35 -163 -18
c-212 -23 -244 -22 -251 2 -9 34 -92 46 -317 45 -168 -1 -212 -4 -242 -18 -46
-20 -49 -44 -8 -53 54 -10 43 -23 -19 -23 -50 0 -62 3 -71 20 -9 17 -6 21 26
35 20 8 34 20 32 27 -3 7 -30 22 -61 33 -31 12 -64 27 -72 35 -13 13 10 15
188 12 111 -2 258 1 327 6 217 16 248 15 260 -8z m-1736 4 c40 -6 44 -8 29
-19 -10 -7 -39 -20 -65 -30 -54 -20 -60 -35 -21 -60 23 -16 24 -19 9 -27 -15
-8 -193 3 -266 17 -14 3 -67 9 -119 15 -60 6 -100 15 -111 25 -14 13 -22 14
-43 4 -23 -10 -32 -8 -76 21 -28 17 -51 33 -51 34 0 0 136 0 303 -2 265 -3
305 -1 317 12 14 18 26 19 94 10z m846 -4 c-8 -5 -28 -7 -45 -4 -47 8 -42 14
11 14 35 0 45 -3 34 -10z m-132 -31 c40 -5 100 -9 133 -9 56 0 179 -28 179
-41 0 -3 -24 -13 -52 -23 -41 -13 -113 -20 -315 -28 -315 -12 -576 -1 -635 28
-21 10 -38 21 -38 25 0 8 33 20 109 39 52 14 376 29 476 23 39 -2 103 -9 143
-14z m1592 -2 c0 -7 -9 -18 -20 -25 -11 -7 -20 -18 -20 -25 0 -6 -7 -25 -15
-41 -14 -26 -14 -31 1 -48 25 -27 36 -22 29 11 -5 23 -2 32 14 40 27 15 26 15
27 -23 0 -29 -5 -37 -42 -60 -46 -29 -50 -30 -224 -46 -149 -13 -285 -27 -440
-45 -264 -30 -1317 -27 -1700 6 -229 19 -568 64 -521 68 11 1 11 5 -2 19 -23
25 -21 68 3 92 26 26 44 25 70 -2 26 -29 21 -42 -19 -48 -37 -6 -38 -24 -1
-26 43 -2 46 -4 26 -19 -23 -18 -12 -34 12 -18 10 6 17 23 17 42 0 35 -5 34
100 21 241 -30 416 -42 740 -50 399 -10 956 -5 1195 11 204 13 497 38 538 45
32 6 32 6 30 -27 -2 -24 1 -34 14 -37 14 -3 15 2 8 32 -4 21 -4 39 1 42 5 3 8
24 7 47 l-3 42 67 0 c55 0 68 3 72 18 5 19 36 24 36 4z m-715 -70 l40 -10 -40
-9 c-46 -11 -400 -7 -411 5 -13 13 2 18 82 26 95 9 273 3 329 -12z m-715 -57
c0 -5 -9 -10 -20 -10 -11 0 -20 5 -20 10 0 6 9 10 20 10 11 0 20 -4 20 -10z"></path>
<path d="M4877 1043 c-14 -13 -6 -42 13 -48 20 -6 60 9 60 23 0 24 -55 43 -73
25z"></path>
<path d="M2130 990 c0 -5 9 -10 21 -10 11 0 17 5 14 10 -3 6 -13 10 -21 10 -8
0 -14 -4 -14 -10z"></path>
<path d="M4873 937 c2 -30 4 -32 40 -32 20 0 37 1 37 3 0 2 -7 16 -15 32 -11
21 -23 30 -40 30 -22 0 -25 -4 -22 -33z"></path>
<path d="M1917 1143 c-10 -9 -9 -113 1 -113 12 0 32 53 32 87 0 31 -16 44 -33
26z"></path>
<path d="M5107 1144 c-11 -11 -8 -214 3 -214 10 0 13 9 27 102 8 45 6 63 -7
88 -9 17 -19 28 -23 24z"></path>
<path d="M5160 1140 c0 -5 5 -10 10 -10 6 0 10 5 10 10 0 6 -4 10 -10 10 -5 0
-10 -4 -10 -10z"></path>
<path d="M1130 1130 c0 -6 38 -10 95 -10 57 0 95 4 95 10 0 6 -38 10 -95 10
-57 0 -95 -4 -95 -10z"></path>
<path d="M1353 1133 c-40 -15 3 -23 132 -23 90 0 145 4 145 10 0 6 -46 10
-119 10 -66 0 -125 2 -133 4 -7 3 -19 2 -25 -1z"></path>
<path d="M1675 1121 c-6 -11 9 -23 19 -14 9 9 7 23 -3 23 -6 0 -12 -4 -16 -9z"></path>
<path d="M1730 1120 c0 -5 20 -10 45 -10 25 0 45 5 45 10 0 6 -20 10 -45 10
-25 0 -45 -4 -45 -10z"></path>
<path d="M5200 1090 c0 -6 30 -10 69 -10 73 0 92 -10 70 -36 -9 -12 -24 -15
-51 -11 -38 5 -52 -5 -23 -17 8 -3 15 -16 15 -30 0 -21 -5 -25 -35 -28 -44 -4
-42 -24 3 -21 38 3 41 -8 10 -31 -23 -17 -23 -17 10 -12 19 3 48 -1 68 -9 l35
-14 -3 -88 -3 -88 -120 0 -120 0 -3 53 c-2 28 -8 52 -13 52 -6 0 -9 -26 -7
-62 l3 -63 140 0 140 0 0 115 0 115 -27 0 c-37 1 -58 22 -58 60 0 33 25 65 51
65 16 0 41 48 33 61 -7 13 -184 11 -184 -1z"></path>
<path d="M1590 982 c0 -56 4 -72 20 -87 18 -16 20 -31 20 -122 0 -62 4 -103
10 -103 6 0 10 45 10 115 0 104 -2 115 -20 125 -17 9 -20 21 -20 75 0 37 -4
65 -10 65 -6 0 -10 -29 -10 -68z"></path>
<path d="M1400 977 c0 -37 5 -59 16 -67 13 -12 15 -6 12 50 -2 40 -8 65 -15
68 -9 3 -13 -12 -13 -51z"></path>
<path d="M1817 1008 c22 -25 10 -46 -29 -50 -40 -4 -39 -23 1 -23 37 0 52 -14
23 -22 -12 -3 -22 -9 -22 -14 0 -12 17 -11 25 2 4 6 20 7 38 3 31 -6 32 -6 15
13 -20 22 -24 73 -7 90 8 8 1 12 -25 15 -33 4 -34 3 -19 -14z"></path>
<path d="M5178 1008 c-20 -31 -30 -76 -18 -83 5 -3 7 -12 3 -20 -4 -12 4 -15
33 -15 l39 1 -27 20 c-33 24 -38 72 -11 101 9 10 11 18 6 18 -6 0 -17 -10 -25
-22z"></path>
<path d="M1760 990 c0 -5 9 -10 20 -10 11 0 20 5 20 10 0 6 -9 10 -20 10 -11
0 -20 -4 -20 -10z"></path>
<path d="M1882 988 c-16 -16 -15 -33 3 -48 20 -17 47 5 43 34 -4 24 -28 32
-46 14z"></path>
<path d="M2001 986 c-19 -23 -4 -58 22 -54 17 2 22 10 22 33 0 34 -24 45 -44
21z"></path>
<path d="M5210 990 c0 -5 9 -10 20 -10 11 0 20 5 20 10 0 6 -9 10 -20 10 -11
0 -20 -4 -20 -10z"></path>
<path d="M5332 988 c-16 -16 -15 -33 3 -48 20 -17 47 5 43 34 -4 24 -28 32
-46 14z"></path>
<path d="M5454 986 c-10 -26 0 -51 21 -51 16 0 20 7 20 30 0 33 -30 49 -41 21z"></path>
<path d="M5580 990 c0 -5 7 -10 15 -10 8 0 15 5 15 10 0 6 -7 10 -15 10 -8 0
-15 -4 -15 -10z"></path>
<path d="M5650 990 c0 -5 5 -10 10 -10 6 0 10 5 10 10 0 6 -4 10 -10 10 -5 0
-10 -4 -10 -10z"></path>
<path d="M1454 966 c-8 -22 4 -36 32 -36 30 0 30 10 -1 33 -22 16 -26 16 -31
3z"></path>
<path d="M1670 960 c0 -13 8 -24 20 -27 11 -3 20 -12 20 -19 0 -8 -9 -14 -20
-14 -19 0 -20 -7 -20 -110 0 -91 3 -112 15 -117 21 -7 32 4 17 19 -7 7 -12 45
-12 99 0 96 10 114 54 103 16 -4 26 -2 26 5 0 6 -7 11 -15 11 -12 0 -25 19
-40 56 0 1 -10 5 -22 8 -19 6 -23 4 -23 -14z"></path>
<path d="M5617 960 c-42 -6 -47 -24 -7 -26 43 -2 46 -4 26 -19 -27 -20 -52
-19 -76 5 -26 26 -30 25 -30 -3 0 -13 -8 -31 -18 -40 -20 -19 -67 -23 -77 -7
-18 28 -25 0 -25 -95 0 -125 18 -143 22 -22 l3 82 36 3 c23 2 45 12 59 27 16
18 30 23 49 19 39 -8 79 11 87 41 8 34 -2 42 -49 35z"></path>
<path d="M1970 919 c0 -17 55 -43 70 -34 16 10 2 25 -24 25 -12 0 -27 5 -34
12 -9 9 -12 9 -12 -3z"></path>
<path d="M1455 899 c-10 -15 1 -23 20 -15 9 3 13 10 10 16 -8 13 -22 13 -30
-1z"></path>
<path d="M1927 703 c-6 -32 -3 -38 12 -28 13 8 15 55 2 55 -5 0 -11 -12 -14
-27z"></path>
<path d="M5060 682 c0 -11 8 -26 18 -35 16 -14 43 -17 170 -17 206 0 201 19
-5 22 -155 3 -158 3 -161 26 -4 26 -22 30 -22 4z"></path>
<path d="M1670 640 c0 -6 40 -10 100 -10 60 0 100 4 100 10 0 6 -40 10 -100
10 -60 0 -100 -4 -100 -10z"></path>
<path d="M110 55 c-11 -13 -26 -16 -62 -13 -45 5 -48 4 -48 -18 l0 -24 345 0
c343 0 346 0 335 20 -12 22 -40 26 -57 9 -19 -19 -76 -19 -96 -1 -16 14 -20
14 -53 -1 -42 -21 -83 -22 -90 -3 -7 18 -52 30 -67 17 -15 -12 -72 -8 -89 7
-7 5 -24 10 -38 10 -14 0 -34 3 -46 7 -13 4 -25 1 -34 -10z"></path>
<path d="M2656 33 c-14 -7 -26 -18 -26 -23 0 -6 161 -10 436 -10 302 0 433 3
429 11 -4 5 -30 9 -58 8 -90 -2 -351 12 -380 22 -19 5 -36 5 -49 -2 -30 -16
-246 -19 -289 -5 -30 11 -41 10 -63 -1z"></path>
<path d="M1513 27 c-23 -7 -45 -15 -49 -19 -4 -5 118 -8 272 -7 193 0 270 4
249 10 -16 6 -49 8 -72 5 -22 -3 -72 1 -110 9 -80 17 -230 18 -290 2z"></path>
<path d="M6408 33 c-14 -2 -32 -11 -38 -19 -11 -12 0 -14 71 -14 l84 0 -30 20
c-30 20 -36 21 -87 13z"></path>
<path d="M964 15 c-18 -14 -17 -14 15 -15 29 0 32 2 21 15 -15 18 -12 18 -36
0z"></path>
<path d="M1084 15 c-17 -13 -12 -14 56 -14 68 0 73 1 56 14 -25 19 -87 19
-112 0z"></path>
<path d="M5665 15 c-27 -12 -20 -13 90 -14 109 0 118 1 95 14 -32 18 -145 19
-185 0z"></path>
<path d="M6760 15 c0 -9 9 -15 21 -15 18 0 19 2 9 15 -7 8 -16 15 -21 15 -5 0
-9 -7 -9 -15z"></path>
<path d="M795 10 c-4 -6 15 -10 50 -10 35 0 54 4 50 10 -8 13 -92 13 -100 0z"></path>
<path d="M1245 10 c-3 -5 3 -10 15 -10 12 0 18 5 15 10 -3 6 -10 10 -15 10 -5
0 -12 -4 -15 -10z"></path>
<path d="M2315 9 c-18 -4 6 -7 58 -8 53 -1 86 3 82 8 -6 11 -91 10 -140 0z"></path>
<path d="M5520 10 c-22 -7 -21 -8 13 -9 23 -1 36 3 32 9 -7 11 -10 11 -45 0z"></path>
<path d="M2048 3 c6 -2 18 -2 25 0 6 3 1 5 -13 5 -14 0 -19 -2 -12 -5z"></path>
<path d="M2238 3 c7 -3 16 -2 19 1 4 3 -2 6 -13 5 -11 0 -14 -3 -6 -6z"></path>
<path d="M5318 3 c6 -2 18 -2 25 0 6 3 1 5 -13 5 -14 0 -19 -2 -12 -5z"></path>
<path d="M6198 3 c6 -2 18 -2 25 0 6 3 1 5 -13 5 -14 0 -19 -2 -12 -5z"></path>
<path d="M6963 3 c9 -2 23 -2 30 0 6 3 -1 5 -18 5 -16 0 -22 -2 -12 -5z"></path>
</g>
</svg>